<?xml version="1.0" encoding="UTF-8" standalone="no"?>
<!-- Created with Inkscape (http://www.inkscape.org/) -->

<svg
   xmlns:dc="http://purl.org/dc/elements/1.1/"
   xmlns:cc="http://creativecommons.org/ns#"
   xmlns:rdf="http://www.w3.org/1999/02/22-rdf-syntax-ns#"
   xmlns:svg="http://www.w3.org/2000/svg"
   xmlns="http://www.w3.org/2000/svg"
   xmlns:sodipodi="http://sodipodi.sourceforge.net/DTD/sodipodi-0.dtd"
   xmlns:inkscape="http://www.inkscape.org/namespaces/inkscape"
   version="1.1"
   id="svg2"
   xml:space="preserve"
   width="258.58755"
   height="258.58755"
   viewBox="0 0 258.58756 258.58756"
   sodipodi:docname="LogoGaliElo.svg"
   inkscape:version="0.92.4 (5da689c313, 2019-01-14)"
   inkscape:export-filename="D:\web_design\galielo\logo\LogoGaliEloSquared.png"
   inkscape:export-xdpi="185.62"
   inkscape:export-ydpi="185.62"><metadata
     id="metadata8"><rdf:RDF><cc:Work
         rdf:about=""><dc:format>image/svg+xml</dc:format><dc:type
           rdf:resource="http://purl.org/dc/dcmitype/StillImage" /><dc:title></dc:title></cc:Work></rdf:RDF></metadata><defs
     id="defs6"><clipPath
       clipPathUnits="userSpaceOnUse"
       id="clipPath18"><path
         d="M 0,200 H 300 V 0 H 0 Z"
         id="path16"
         inkscape:connector-curvature="0" /></clipPath><clipPath
       clipPathUnits="userSpaceOnUse"
       id="clipPath38"><path
         d="M 0,200 H 300 V 0 H 0 Z"
         id="path36"
         inkscape:connector-curvature="0" /></clipPath></defs><sodipodi:namedview
     pagecolor="#ffffff"
     bordercolor="#666666"
     borderopacity="1"
     objecttolerance="10"
     gridtolerance="10"
     guidetolerance="10"
     inkscape:pageopacity="0"
     inkscape:pageshadow="2"
     inkscape:window-width="1366"
     inkscape:window-height="705"
     id="namedview4"
     showgrid="false"
     inkscape:zoom="0.88500003"
     inkscape:cx="129.29378"
     inkscape:cy="129.29378"
     inkscape:window-x="-8"
     inkscape:window-y="-8"
     inkscape:window-maximized="1"
     inkscape:current-layer="g10" /><g
     id="g32"
     transform="matrix(2.4886489,0,0,2.4886489,-505.18301,-33.824228)"
     style="stroke-width:0.40182447"><g
       id="g34"
       clip-path="url(#clipPath38)"
       style="stroke-width:0.40182447"><g
         id="g40"
         transform="translate(245.0078,104.5903)"
         style="stroke-width:0.40182447"><path
           d="m 0,0 c -9.536,-2.597 -16.994,-7.727 -22.957,-15.802 2.327,0.328 4.198,0.705 6.086,0.819 1.672,0.103 2.942,0.825 4.208,1.812 3.092,2.41 6.141,4.901 9.411,7.044 C -0.971,-4.636 -0.689,-2.433 0,0 m 44.248,-60.167 c -1.126,0.151 -1.909,0.169 -2.641,0.375 -1.826,0.51 -3.268,0.045 -4.753,-1.162 -2.946,-2.399 -6.009,-4.665 -9.125,-6.84 -1.753,-1.222 -3.062,-2.7 -4.016,-4.59 -0.858,-1.705 -1.869,-3.335 -2.811,-4.997 0.138,-0.117 0.281,-0.232 0.418,-0.346 9.649,2.959 17.178,8.734 22.928,17.56 M 1.564,-4.741 c 2.407,-1.17 4.734,-2.256 7.016,-3.423 3.003,-1.535 5.95,-2.821 9.547,-2.406 3.927,0.452 7.922,0.332 11.843,0.457 0.277,0.848 0.512,1.535 0.73,2.23 0.688,2.211 0.298,3.179 -1.741,4.356 -0.288,0.167 -0.588,0.32 -0.889,0.469 C 20.977,0.478 13.508,1.886 5.596,1.056 3.944,0.883 2.879,0.473 2.581,-1.309 2.396,-2.401 1.957,-3.45 1.564,-4.741 m 48.791,-34.574 c -0.119,1.505 -0.068,3.047 -0.394,4.504 -0.437,1.945 -0.775,4.119 -1.918,5.619 -0.661,0.87 -2.815,0.572 -4.289,0.872 -1.115,0.23 -1.719,-0.11 -2.129,-1.221 -1.057,-2.827 -2.114,-5.662 -3.396,-8.39 -1.185,-2.539 -1.624,-4.994 -0.771,-7.741 0.644,-2.073 0.91,-4.261 1.353,-6.396 0.307,-1.474 0.168,-3.441 1.068,-4.283 0.949,-0.889 2.93,-0.607 4.411,-1.013 1.206,-0.329 1.671,0.154 2.138,1.163 2.474,5.363 3.786,10.974 3.927,16.886 m -77.404,-8.018 c 2.892,0.589 5.612,1.192 8.354,1.676 1.079,0.19 1.61,0.725 1.992,1.71 1.087,2.814 2.012,5.734 3.476,8.347 2.204,3.931 2.312,7.664 0.372,11.686 -0.979,2.023 -1.502,4.265 -2.219,6.377 -2.719,-0.362 -5.227,-0.621 -7.697,-1.076 -0.6,-0.112 -1.335,-0.762 -1.583,-1.346 -1.842,-4.377 -3.62,-8.783 -5.312,-13.22 -0.361,-0.948 -0.593,-2.134 -0.367,-3.088 0.861,-3.64 1.93,-7.228 2.984,-11.066 m 49.464,-21.719 c -3.64,2.684 -7.22,5.354 -10.842,7.969 -0.348,0.252 -0.953,0.259 -1.426,0.218 -4.903,-0.427 -9.8,-0.925 -14.706,-1.306 -0.978,-0.077 -1.345,-0.49 -1.615,-1.318 -0.704,-2.178 -1.424,-4.355 -2.229,-6.498 -0.336,-0.895 -0.146,-1.428 0.597,-1.98 1.976,-1.47 3.995,-2.904 5.824,-4.541 2.277,-2.038 4.902,-2.538 7.781,-2.221 3.67,0.404 7.336,0.85 10.991,1.344 0.468,0.063 1.054,0.421 1.291,0.816 1.468,2.437 2.853,4.923 4.334,7.517 m 0.1,56.129 c 0,-0.056 0,-0.115 -0.003,-0.169 -2.349,-0.108 -4.701,-0.149 -7.038,-0.366 -0.54,-0.052 -1.279,-0.603 -1.495,-1.11 -1.617,-3.807 -3.093,-7.678 -4.701,-11.492 -0.429,-1.023 -0.271,-1.727 0.377,-2.582 2.947,-3.881 5.845,-7.796 8.707,-11.739 0.59,-0.815 1.177,-1.155 2.213,-1.058 4.237,0.392 8.483,0.661 12.718,1.069 0.501,0.049 1.172,0.592 1.375,1.071 1.613,3.81 3.159,7.648 4.642,11.512 0.198,0.513 0.112,1.351 -0.192,1.809 -2.675,4.067 -5.401,8.105 -8.2,12.091 -0.356,0.506 -1.215,0.886 -1.86,0.92 -2.176,0.113 -4.36,0.044 -6.543,0.044 M -5.704,-59.487 c 5.355,0.489 10.374,0.911 15.381,1.456 0.535,0.058 1.202,0.748 1.448,1.304 1.818,4.084 3.519,8.226 5.322,12.317 0.38,0.868 0.378,1.483 -0.216,2.269 -2.972,3.925 -5.917,7.875 -8.786,11.877 -0.664,0.926 -1.341,1.141 -2.39,0.989 -4.152,-0.601 -8.319,-1.102 -12.46,-1.751 -0.553,-0.088 -1.234,-0.718 -1.468,-1.261 -1.852,-4.312 -3.642,-8.654 -5.363,-13.021 -0.22,-0.557 -0.169,-1.454 0.145,-1.948 2.429,-3.825 4.942,-7.595 7.462,-11.364 0.274,-0.411 0.738,-0.696 0.925,-0.867 m -27.431,15.731 v 9.423 c 0.106,0.295 0.273,0.584 0.312,0.891 2.317,17.589 14.972,31.826 32.225,36.201 1.925,0.488 3.883,0.851 5.826,1.271 h 9.422 c 0.243,-0.102 0.477,-0.265 0.727,-0.3 22.028,-3.061 37.639,-20.938 37.639,-43.111 0,-19.38 -13.402,-36.619 -32.204,-41.395 -2.037,-0.516 -4.106,-0.9 -6.162,-1.345 H 5.228 c -0.298,0.108 -0.587,0.274 -0.892,0.314 -17.589,2.315 -31.825,14.973 -36.2,32.224 -0.49,1.925 -0.851,3.882 -1.271,5.827"
           style="fill:#2a52be;fill-opacity:1;fill-rule:evenodd;stroke:none;stroke-width:0.40182447"
           id="path42"
           inkscape:connector-curvature="0" /></g><g
         id="g44"
         transform="translate(245.0078,104.5903)"
         style="stroke-width:0.40182447"><path
           d="m 0,0 c -9.536,-2.597 -16.994,-7.727 -22.957,-15.802 2.327,0.328 4.198,0.705 6.086,0.819 1.672,0.103 2.942,0.825 4.208,1.812 3.092,2.41 6.141,4.901 9.411,7.044 C -0.971,-4.636 -0.689,-2.433 0,0 Z m 44.248,-60.167 c -1.126,0.151 -1.909,0.169 -2.641,0.375 -1.826,0.51 -3.268,0.045 -4.753,-1.162 -2.946,-2.399 -6.009,-4.665 -9.125,-6.84 -1.753,-1.222 -3.062,-2.7 -4.016,-4.59 -0.858,-1.705 -1.869,-3.335 -2.811,-4.997 0.138,-0.117 0.281,-0.232 0.418,-0.346 9.649,2.959 17.178,8.734 22.928,17.56 z M 1.564,-4.741 c 2.407,-1.17 4.734,-2.256 7.016,-3.423 3.003,-1.535 5.95,-2.821 9.547,-2.406 3.927,0.452 7.922,0.332 11.843,0.457 0.277,0.848 0.512,1.535 0.73,2.23 0.688,2.211 0.298,3.179 -1.741,4.356 -0.288,0.167 -0.588,0.32 -0.889,0.469 C 20.977,0.478 13.508,1.886 5.596,1.056 3.944,0.883 2.879,0.473 2.581,-1.309 2.396,-2.401 1.957,-3.45 1.564,-4.741 Z m 48.791,-34.574 c -0.119,1.505 -0.068,3.047 -0.394,4.504 -0.437,1.945 -0.775,4.119 -1.918,5.619 -0.661,0.87 -2.815,0.572 -4.289,0.872 -1.115,0.23 -1.719,-0.11 -2.129,-1.221 -1.057,-2.827 -2.114,-5.662 -3.396,-8.39 -1.185,-2.539 -1.624,-4.994 -0.771,-7.741 0.644,-2.073 0.91,-4.261 1.353,-6.396 0.307,-1.474 0.168,-3.441 1.068,-4.283 0.949,-0.889 2.93,-0.607 4.411,-1.013 1.206,-0.329 1.671,0.154 2.138,1.163 2.474,5.363 3.786,10.974 3.927,16.886 z m -77.404,-8.018 c 2.892,0.589 5.612,1.192 8.354,1.676 1.079,0.19 1.61,0.725 1.992,1.71 1.087,2.814 2.012,5.734 3.476,8.347 2.204,3.931 2.312,7.664 0.372,11.686 -0.979,2.023 -1.502,4.265 -2.219,6.377 -2.719,-0.362 -5.227,-0.621 -7.697,-1.076 -0.6,-0.112 -1.335,-0.762 -1.583,-1.346 -1.842,-4.377 -3.62,-8.783 -5.312,-13.22 -0.361,-0.948 -0.593,-2.134 -0.367,-3.088 0.861,-3.64 1.93,-7.228 2.984,-11.066 z m 49.464,-21.719 c -3.64,2.684 -7.22,5.354 -10.842,7.969 -0.348,0.252 -0.953,0.259 -1.426,0.218 -4.903,-0.427 -9.8,-0.925 -14.706,-1.306 -0.978,-0.077 -1.345,-0.49 -1.615,-1.318 -0.704,-2.178 -1.424,-4.355 -2.229,-6.498 -0.336,-0.895 -0.146,-1.428 0.597,-1.98 1.976,-1.47 3.995,-2.904 5.824,-4.541 2.277,-2.038 4.902,-2.538 7.781,-2.221 3.67,0.404 7.336,0.85 10.991,1.344 0.468,0.063 1.054,0.421 1.291,0.816 1.468,2.437 2.853,4.923 4.334,7.517 z m 0.1,56.129 c 0,-0.056 0,-0.115 -0.003,-0.169 -2.349,-0.108 -4.701,-0.149 -7.038,-0.366 -0.54,-0.052 -1.279,-0.603 -1.495,-1.11 -1.617,-3.807 -3.093,-7.678 -4.701,-11.492 -0.429,-1.023 -0.271,-1.727 0.377,-2.582 2.947,-3.881 5.845,-7.796 8.707,-11.739 0.59,-0.815 1.177,-1.155 2.213,-1.058 4.237,0.392 8.483,0.661 12.718,1.069 0.501,0.049 1.172,0.592 1.375,1.071 1.613,3.81 3.159,7.648 4.642,11.512 0.198,0.513 0.112,1.351 -0.192,1.809 -2.675,4.067 -5.401,8.105 -8.2,12.091 -0.356,0.506 -1.215,0.886 -1.86,0.92 -2.176,0.113 -4.36,0.044 -6.543,0.044 z M -5.704,-59.487 c 5.355,0.489 10.374,0.911 15.381,1.456 0.535,0.058 1.202,0.748 1.448,1.304 1.818,4.084 3.519,8.226 5.322,12.317 0.38,0.868 0.378,1.483 -0.216,2.269 -2.972,3.925 -5.917,7.875 -8.786,11.877 -0.664,0.926 -1.341,1.141 -2.39,0.989 -4.152,-0.601 -8.319,-1.102 -12.46,-1.751 -0.553,-0.088 -1.234,-0.718 -1.468,-1.261 -1.852,-4.312 -3.642,-8.654 -5.363,-13.021 -0.22,-0.557 -0.169,-1.454 0.145,-1.948 2.429,-3.825 4.942,-7.595 7.462,-11.364 0.274,-0.411 0.738,-0.696 0.925,-0.867 z m -27.431,15.731 v 9.423 c 0.106,0.295 0.273,0.584 0.312,0.891 2.317,17.589 14.972,31.826 32.225,36.201 1.925,0.488 3.883,0.851 5.826,1.271 h 9.422 c 0.243,-0.102 0.477,-0.265 0.727,-0.3 22.028,-3.061 37.639,-20.938 37.639,-43.111 0,-19.38 -13.402,-36.619 -32.204,-41.395 -2.037,-0.516 -4.106,-0.9 -6.162,-1.345 H 5.228 c -0.298,0.108 -0.587,0.274 -0.892,0.314 -17.589,2.315 -31.825,14.973 -36.2,32.224 -0.49,1.925 -0.851,3.882 -1.271,5.827 z"
           style="fill:none;stroke:#2a52be;stroke-width:1.20547342;stroke-linecap:butt;stroke-linejoin:miter;stroke-miterlimit:10;stroke-dasharray:none;stroke-opacity:1"
           id="path46"
           inkscape:connector-curvature="0" /></g><g
         id="g48"
         transform="translate(239.3037,45.1035)"
         style="stroke-width:0.40182447"><path
           d="m 0,0 c -0.187,0.171 -0.651,0.456 -0.925,0.867 -2.52,3.769 -5.033,7.539 -7.462,11.363 -0.314,0.495 -0.365,1.392 -0.145,1.949 1.721,4.367 3.511,8.709 5.363,13.021 0.234,0.543 0.915,1.173 1.468,1.261 4.141,0.648 8.308,1.149 12.46,1.751 1.049,0.152 1.726,-0.064 2.39,-0.989 2.87,-4.002 5.814,-7.952 8.787,-11.877 0.593,-0.786 0.595,-1.402 0.215,-2.269 C 20.348,10.985 18.647,6.844 16.829,2.76 16.583,2.204 15.916,1.514 15.381,1.456 10.374,0.911 5.355,0.489 0,0 Z"
           style="fill:none;stroke:#2a52be;stroke-width:1.20547342;stroke-linecap:butt;stroke-linejoin:miter;stroke-miterlimit:10;stroke-dasharray:none;stroke-opacity:1"
           id="path50"
           inkscape:connector-curvature="0" /></g><g
         id="g52"
         transform="translate(267.5225,91.667)"
         style="stroke-width:0.40182447"><path
           d="m 0,0 c 2.184,0 4.367,0.069 6.543,-0.044 0.645,-0.034 1.505,-0.414 1.86,-0.92 2.799,-3.985 5.526,-8.023 8.201,-12.091 0.303,-0.458 0.389,-1.296 0.191,-1.808 -1.482,-3.865 -3.028,-7.702 -4.642,-11.513 -0.203,-0.478 -0.874,-1.021 -1.375,-1.07 -4.235,-0.408 -8.48,-0.678 -12.717,-1.07 -1.037,-0.096 -1.624,0.244 -2.213,1.058 -2.863,3.943 -5.761,7.858 -8.707,11.739 -0.649,0.856 -0.807,1.559 -0.377,2.582 1.607,3.815 3.084,7.685 4.701,11.492 0.216,0.507 0.954,1.058 1.494,1.11 2.337,0.218 4.689,0.259 7.038,0.366 C 0,-0.114 0,-0.056 0,0 Z"
           style="fill:none;stroke:#2a52be;stroke-width:1.20547342;stroke-linecap:butt;stroke-linejoin:miter;stroke-miterlimit:10;stroke-dasharray:none;stroke-opacity:1"
           id="path54"
           inkscape:connector-curvature="0" /></g><g
         id="g56"
         transform="translate(267.4229,35.5381)"
         style="stroke-width:0.40182447"><path
           d="m 0,0 c -1.481,-2.594 -2.866,-5.08 -4.334,-7.517 -0.237,-0.395 -0.823,-0.753 -1.291,-0.816 -3.655,-0.494 -7.321,-0.939 -10.991,-1.344 -2.879,-0.317 -5.504,0.183 -7.781,2.221 -1.829,1.638 -3.848,3.071 -5.824,4.541 -0.743,0.553 -0.933,1.085 -0.597,1.98 0.805,2.143 1.525,4.32 2.229,6.498 0.27,0.829 0.637,1.242 1.615,1.318 4.906,0.382 9.803,0.88 14.706,1.307 0.473,0.041 1.078,0.034 1.426,-0.218 C -7.22,5.354 -3.64,2.685 0,0 Z"
           style="fill:none;stroke:#2a52be;stroke-width:1.20547342;stroke-linecap:butt;stroke-linejoin:miter;stroke-miterlimit:10;stroke-dasharray:none;stroke-opacity:1"
           id="path58"
           inkscape:connector-curvature="0" /></g><g
         id="g60"
         transform="translate(217.959,57.2578)"
         style="stroke-width:0.40182447"><path
           d="m 0,0 c -1.054,3.838 -2.123,7.426 -2.984,11.065 -0.226,0.955 0.005,2.14 0.367,3.088 1.692,4.438 3.47,8.843 5.312,13.22 0.247,0.584 0.983,1.234 1.583,1.347 2.47,0.455 4.978,0.714 7.697,1.076 0.716,-2.112 1.24,-4.355 2.218,-6.377 1.941,-4.023 1.832,-7.756 -0.371,-11.687 C 12.357,9.119 11.433,6.199 10.346,3.386 9.964,2.4 9.433,1.865 8.354,1.676 5.612,1.191 2.892,0.589 0,0 Z"
           style="fill:none;stroke:#2a52be;stroke-width:1.20547342;stroke-linecap:butt;stroke-linejoin:miter;stroke-miterlimit:10;stroke-dasharray:none;stroke-opacity:1"
           id="path62"
           inkscape:connector-curvature="0" /></g><g
         id="g64"
         transform="translate(295.3633,65.2754)"
         style="stroke-width:0.40182447"><path
           d="m 0,0 c -0.142,-5.912 -1.453,-11.523 -3.928,-16.886 -0.467,-1.01 -0.931,-1.492 -2.137,-1.163 -1.482,0.406 -3.462,0.124 -4.412,1.013 -0.9,0.842 -0.76,2.808 -1.068,4.283 -0.442,2.135 -0.709,4.323 -1.352,6.396 -0.853,2.747 -0.415,5.202 0.771,7.741 1.281,2.728 2.339,5.563 3.396,8.39 0.41,1.111 1.013,1.451 2.128,1.221 1.474,-0.3 3.628,-0.002 4.289,-0.872 1.143,-1.5 1.482,-3.674 1.918,-5.619 C -0.068,3.047 -0.119,1.505 0,0 Z"
           style="fill:none;stroke:#2a52be;stroke-width:1.20547342;stroke-linecap:butt;stroke-linejoin:miter;stroke-miterlimit:10;stroke-dasharray:none;stroke-opacity:1"
           id="path66"
           inkscape:connector-curvature="0" /></g><g
         id="g68"
         transform="translate(246.5723,99.8496)"
         style="stroke-width:0.40182447"><path
           d="M 0,0 C 0.393,1.291 0.832,2.339 1.017,3.432 1.314,5.213 2.38,5.624 4.031,5.796 11.943,6.627 19.412,5.219 26.506,1.683 26.807,1.534 27.106,1.38 27.395,1.213 29.434,0.037 29.823,-0.932 29.136,-3.143 28.918,-3.837 28.683,-4.524 28.405,-5.372 24.484,-5.497 20.489,-5.377 16.562,-5.829 12.966,-6.244 10.019,-4.958 7.016,-3.423 4.733,-2.256 2.406,-1.17 0,0 Z"
           style="fill:none;stroke:#2a52be;stroke-width:1.20547342;stroke-linecap:butt;stroke-linejoin:miter;stroke-miterlimit:10;stroke-dasharray:none;stroke-opacity:1"
           id="path70"
           inkscape:connector-curvature="0" /></g><g
         id="g72"
         transform="translate(289.2559,44.4238)"
         style="stroke-width:0.40182447"><path
           d="m 0,0 c -5.75,-8.826 -13.279,-14.602 -22.928,-17.561 -0.137,0.115 -0.28,0.23 -0.418,0.346 0.942,1.662 1.953,3.292 2.811,4.997 0.954,1.891 2.263,3.368 4.016,4.59 3.116,2.176 6.179,4.441 9.125,6.841 1.485,1.207 2.927,1.672 4.753,1.162 C -1.909,0.169 -1.126,0.15 0,0 Z"
           style="fill:none;stroke:#2a52be;stroke-width:1.20547342;stroke-linecap:butt;stroke-linejoin:miter;stroke-miterlimit:10;stroke-dasharray:none;stroke-opacity:1"
           id="path74"
           inkscape:connector-curvature="0" /></g><g
         id="g76"
         transform="translate(245.0078,104.5903)"
         style="stroke-width:0.40182447"><path
           d="m 0,0 c -0.689,-2.433 -0.971,-4.636 -3.252,-6.127 -3.27,-2.143 -6.319,-4.634 -9.411,-7.044 -1.266,-0.987 -2.536,-1.709 -4.208,-1.812 -1.888,-0.114 -3.759,-0.491 -6.086,-0.819 C -16.994,-7.727 -9.536,-2.597 0,0 Z"
           style="fill:none;stroke:#2a52be;stroke-width:1.20547342;stroke-linecap:butt;stroke-linejoin:miter;stroke-miterlimit:10;stroke-dasharray:none;stroke-opacity:1"
           id="path78"
           inkscape:connector-curvature="0" /></g></g></g><g
     id="g10"
     inkscape:groupmode="layer"
     inkscape:label="LogoGaliElo"
     transform="matrix(1.3333333,0,0,-1.3333333,-70.706221,262.62711)"><g
       clip-path="url(#clipPath18)"
       id="g14"
       transform="translate(-4.56265,-2.7476468)"><g
         transform="matrix(1.5675405,1.5675405,-1.5675405,1.5675405,227.11447,30.135659)"
         id="g24"
         style="stroke-width:0.45109317"><path
           inkscape:connector-curvature="0"
           id="path26"
           style="fill:#a22e37;fill-opacity:1;fill-rule:evenodd;stroke:none;stroke-width:0.45109317"
           d="m 0,0 c -2.226,0 -4.456,-0.069 -6.678,0.022 -1.786,0.074 -2.567,1.029 -2.564,2.814 0.002,3.24 0.014,6.476 -0.003,9.715 -0.005,0.828 0.327,1.438 1.054,1.782 0.479,0.226 0.556,0.601 0.656,1.046 0.544,2.413 -0.111,4.667 -0.883,6.898 -1.096,3.161 -1.899,6.391 -2.386,9.697 -0.033,0.223 -0.07,0.472 -0.189,0.653 -1.272,1.916 -1.639,4.059 -1.625,6.305 0.006,0.798 -0.041,1.598 0.01,2.395 0.094,1.446 -0.093,2.838 -0.595,4.194 -0.066,0.175 -0.113,0.367 -0.117,0.552 -0.014,0.836 -0.232,1.466 -1.038,1.969 -1.045,0.65 -1.087,1.897 -1.233,2.985 -0.573,4.267 -0.479,8.555 -0.218,12.835 0.143,2.346 0.587,4.653 1.433,6.877 0.61,1.603 1.688,2.452 3.338,2.894 1.521,0.408 2.99,1.065 4.423,1.738 1.128,0.531 2.011,1.455 2.01,2.765 -0.002,0.956 -0.147,2.041 -0.619,2.84 -1.788,3.025 -2.344,6.273 -2.028,9.692 0.286,3.11 1.941,5.583 5.547,6.25 1.757,0.325 3.48,0.31 5.122,-0.446 2.119,-0.977 3.346,-2.75 3.87,-4.935 C 7.968,88.699 7.861,85.874 6.577,83.171 6.019,82 5.417,80.841 4.991,79.622 4.469,78.135 5.193,76.349 6.418,75.753 c 0.281,-0.135 0.585,-0.246 0.892,-0.3 0.994,-0.176 1.816,-0.667 2.493,-1.375 0.492,-0.516 1.08,-0.786 1.737,-0.944 1.949,-0.461 3.209,-1.666 3.609,-3.607 0.326,-1.574 0.607,-3.19 0.626,-4.788 0.045,-3.802 -0.041,-7.606 -0.143,-11.407 -0.061,-2.148 -0.468,-4.21 -2.023,-5.88 -0.256,-0.279 -0.302,-0.763 -0.419,-1.16 -0.178,-0.599 -0.37,-1.198 -0.481,-1.811 -0.141,-0.778 -0.222,-1.57 -0.299,-2.358 -0.178,-1.92 -0.309,-3.846 -0.518,-5.762 -0.07,-0.618 -0.324,-1.215 -0.488,-1.82 -0.499,-1.816 -1.003,-3.632 -1.49,-5.45 C 9.281,26.743 8.623,24.4 8.051,22.038 7.806,21.024 7.682,19.97 7.626,18.929 7.563,17.757 7.651,16.577 7.648,15.4 7.648,14.939 7.834,14.671 8.262,14.489 9.354,14.021 9.388,13.885 9.38,12.676 9.365,9.459 9.384,6.243 9.375,3.026 9.37,1.434 8.718,0.381 7.55,0.138 6.937,0.008 6.305,-0.064 5.678,-0.073 3.786,-0.099 1.896,-0.083 0,-0.083 Z" /></g></g></g></svg>